<svg xmlns="http://www.w3.org/2000/svg" version="1.1" xmlns:xlink="http://www.w3.org/1999/xlink" xmlns:svgjs="http://svgjs.dev/svgjs" viewBox="0 0 800 800"><defs><linearGradient x1="50%" y1="0%" x2="50%" y2="100%" id="ccchaos-grad"><stop stop-color="hsl(206, 75%, 49%)" stop-opacity="1" offset="0%"></stop><stop stop-color="hsl(331, 90%, 56%)" stop-opacity="1" offset="100%"></stop></linearGradient></defs><g stroke-width="2" stroke="url(#ccchaos-grad)" fill="none" stroke-linecap="round"><path d="M377.74 62.48Q385.97 66.01 394.46 69.71 403.21 73.61 412.23 77.77 421.55 82.2 431.16 86.94 441.06 92 451.26 97.39 461.75 103.13 472.52 109.2 483.55 115.59 494.84 122.28 506.35 129.24 518.06 136.43 529.96 143.81 541.99 151.32 554.14 158.92 566.37 166.54 578.63 174.12 590.89 181.61 603.11 188.95 615.25 196.07 627.27 202.93 639.12 209.48 650.77 215.67 662.18 221.48 673.31 226.87 684.13 231.84 694.61 236.38 704.72 240.5 718.35 251.16 719.19 268.69 714.65 279.27 708.84 289.85 702.02 300.43 694.49 311.01 686.59 321.59 678.66 332.18 671.05 342.76 664.11 353.34 658.13 363.92 653.38 374.5 650.08 385.08 648.36 395.66 648.31 406.24 649.92 416.82 653.12 427.4 657.78 437.98 663.69 448.56 670.58 459.15 678.15 469.73 686.07 480.31 693.99 490.89 701.55 501.47 708.43 512.05 714.31 522.63 718.94 533.21 722.12 543.79 723.7 554.38 723.61 564.96 721.86 575.54 718.53 586.12 706.99 594.72 695.18 602.78 683.13 610.22 670.9 616.98 658.52 623.01 646.04 628.29 633.5 632.8 620.95 636.54 608.42 639.55 595.97 641.86 583.62 643.54 571.41 644.66 559.39 645.31 547.58 645.59 536 645.63 524.69 645.53 513.66 645.42 502.93 645.43 492.51 645.68 482.41 646.29 472.64 647.38 463.19 649.05 454.05 651.39 445.23 654.47 436.71 658.35 428.46 663.07 420.49 668.65 412.76 675.09 405.25 682.37 397.93 690.45 390.78 699.25 383.77 708.72 373.67 708.59 363.81 708.8 354.22 709.22 344.88 709.71 327.04 710.21 309.89 709.76 293.73 706.65 278.04 701.43 270.42 697.45 262.89 692.66 255.43 687.04 248.01 680.61 240.61 673.43 233.21 665.53 225.78 657 218.3 647.93 210.76 638.4 203.13 628.54 195.41 618.45 187.58 608.25 179.62 598.07 171.53 588.02 163.31 578.23 154.94 568.78 146.44 559.79 137.8 551.34 129.02 543.5 120.12 536.32 120.75 526.36 121.07 516.39 121.09 506.43 120.79 496.47 120.2 486.5 119.32 476.54 118.22 466.58 116.92 456.62 115.5 446.65 114.01 436.69 112.52 426.73 111.09 416.76 109.8 406.8 108.69 396.84 107.81 386.87 107.21 376.91 106.9 366.95 106.91 356.98 107.24 347.02 107.86 337.06 108.75 327.1 109.88 317.13 111.18 307.17 112.61 297.21 114.11 287.24 115.59 277.28 117.01 267.32 118.29 257.35 119.39 247.39 120.24 237.43 125.68 220.65 139.89 210.49 149.14 207.45 158.27 204.65 167.28 202.03 176.15 199.51 184.87 197.05 193.44 194.56 210.01 189.19 226.12 183.22 241.5 175.83 256.5 167.4 263.82 162.54 271.06 157.3 278.25 151.71 285.4 145.77 292.54 139.52 299.7 132.99 306.9 126.22 314.17 119.25 321.53 112.13 329.01 104.92 336.64 97.67 344.43 90.43 352.42 83.24 360.62 76.16 373.4 65.85 377.74 62.48" stroke-dasharray="2 2" transform="rotate(0, 400, 400)"></path><path d="M377.64 74.91Q386.15 78.24 394.91 81.74 403.92 85.44 413.2 89.37 422.75 93.56 432.55 98.04 442.61 102.83 452.92 107.94 463.46 113.37 474.23 119.12 485.2 125.18 496.35 131.54 507.66 138.16 519.11 145.03 530.66 152.09 542.29 159.31 553.96 166.64 565.65 174.03 577.3 181.42 588.9 188.77 600.4 196 611.77 203.08 622.97 209.95 633.97 216.56 644.75 222.86 655.26 228.83 665.48 234.44 675.39 239.65 684.95 244.46 694.16 248.86 706.07 259.77 705.43 276.91 700.48 287.13 694.49 297.35 687.7 307.57 680.39 317.79 672.86 328.01 665.42 338.23 658.37 348.46 652 358.68 646.56 368.9 642.29 379.12 639.36 389.34 637.89 399.56 637.93 409.78 639.48 420 642.49 430.23 646.82 440.45 652.31 450.67 658.73 460.89 665.81 471.11 673.26 481.33 680.79 491.55 688.08 501.78 694.83 512 700.77 522.22 705.66 532.44 709.3 542.66 711.54 552.88 712.28 563.11 711.49 573.33 709.22 583.55 698.55 591.14 687.6 598.16 676.4 604.55 664.98 610.27 653.38 615.3 641.63 619.63 629.78 623.27 617.85 626.23 605.9 628.56 593.95 630.3 582.05 631.52 570.22 632.29 558.5 632.71 546.92 632.87 535.51 632.87 524.3 632.82 513.31 632.84 502.56 633.03 492.06 633.5 481.83 634.35 471.88 635.68 462.21 637.58 452.84 640.11 443.75 643.34 434.94 647.31 426.41 652.06 418.15 657.59 410.15 663.9 402.38 670.98 394.83 678.77 387.49 687.23 380.32 696.29 371.15 696.1 362.22 696.22 345.18 696.92 328.8 697.51 313.38 696.78 298.42 694.67 284.03 689.49 269.86 682.17 262.84 677.2 255.83 671.49 248.8 665.06 241.73 657.95 234.62 650.21 227.43 641.91 220.15 633.14 212.78 623.97 205.3 614.52 197.69 604.87 189.96 595.13 182.09 585.41 174.09 575.82 165.95 566.45 157.67 557.4 149.26 548.75 140.73 540.57 132.08 532.95 132.55 523.33 132.71 513.72 132.56 504.11 132.1 494.49 131.34 484.88 130.33 475.27 129.1 465.65 127.7 456.04 126.19 446.43 124.64 436.82 123.09 427.2 121.63 417.59 120.3 407.98 119.16 398.36 118.26 388.75 117.64 379.14 117.32 369.52 117.31 359.91 117.62 350.3 118.22 340.68 119.11 331.07 120.23 321.46 121.55 311.85 123.01 302.23 124.55 292.62 126.11 283.01 127.63 273.39 129.03 263.78 130.27 254.17 131.3 244.56 136.89 228.59 150.82 219.4 159.84 216.8 168.76 214.35 177.56 212 186.23 209.7 203.09 204.93 219.51 199.77 235.16 193.49 250.35 186.32 264.86 177.44 279.02 167.51 285.93 161.95 292.78 156.06 299.57 149.9 306.34 143.48 313.1 136.84 319.88 130.03 326.7 123.1 333.59 116.08 340.57 109.04 347.67 102.01 354.9 95.04 362.29 88.17 373.75 78.18 377.64 74.91" stroke-dasharray="7 0" transform="rotate(4.04, 400, 400)"></path><path d="M379.03 87.33Q387.77 90.48 396.75 93.78 405.96 97.27 415.4 100.98 425.06 104.94 434.95 109.16 445.04 113.68 455.32 118.5 465.79 123.62 476.42 129.05 487.18 134.78 498.07 140.8 509.05 147.09 520.1 153.61 531.19 160.35 542.3 167.25 553.39 174.29 564.43 181.42 575.39 188.59 586.25 195.74 596.97 202.84 607.52 209.83 617.88 216.66 628.01 223.28 637.9 229.66 647.52 235.76 656.85 241.53 665.87 246.96 674.56 252.02 682.92 256.7 693.25 267.87 691.36 284.6 686.13 294.45 680.05 304.3 673.38 314.15 666.35 323.99 659.23 333.84 652.29 343.69 645.79 353.54 639.98 363.39 635.07 373.23 631.26 383.08 628.67 392.93 627.42 402.78 627.55 412.63 629.05 422.47 631.86 432.32 635.89 442.17 640.97 452.02 646.93 461.87 653.52 471.71 660.51 481.56 667.63 491.41 674.62 501.26 681.2 511.1 687.14 520.95 692.2 530.8 696.2 540.65 698.99 550.49 700.46 560.34 700.56 570.19 699.27 580.04 689.47 586.6 679.37 592.58 669.02 597.95 658.43 602.69 647.63 606.79 636.66 610.26 625.54 613.13 614.31 615.41 603.01 617.16 591.65 618.43 580.29 619.28 568.94 619.8 557.64 620.07 546.41 620.17 535.29 620.19 524.31 620.24 513.48 620.41 502.82 620.8 492.36 621.49 482.12 622.58 472.11 624.14 462.33 626.24 452.8 628.94 443.53 632.3 434.51 636.34 425.74 641.09 417.23 646.55 408.96 652.73 400.94 659.59 393.14 667.1 385.56 675.21 378.18 683.86 362.02 683.75 346.48 684.2 331.84 684.55 317.65 684.26 304.01 682 290.58 678.13 277.3 671.11 263.99 662.06 257.28 656.35 250.5 649.99 243.65 643.03 236.71 635.52 229.66 627.51 222.51 619.08 215.23 610.31 207.83 601.28 200.3 592.07 192.64 582.79 184.84 573.53 176.92 564.37 168.86 555.4 160.68 546.71 152.39 538.37 143.99 530.45 144.28 521.18 144.25 511.91 143.92 502.64 143.29 493.37 142.38 484.1 141.24 474.83 139.89 465.55 138.4 456.28 136.82 447.01 135.21 437.74 133.62 428.47 132.13 419.2 130.78 409.93 129.63 400.66 128.72 391.39 128.08 382.12 127.74 372.84 127.71 363.57 128 354.3 128.58 345.03 129.44 335.76 130.56 326.49 131.87 317.22 133.34 307.95 134.92 298.67 136.53 289.4 138.12 280.13 139.63 270.86 141.01 261.59 142.19 252.32 147.94 237.11 161.59 228.76 170.37 226.5 179.07 224.32 196.08 219.98 212.74 215.43 228.7 210.06 244.23 203.94 259.01 196.32 273.36 187.71 287.05 177.45 300.42 166.26 306.95 160.19 313.42 153.89 319.84 147.4 326.23 140.76 332.62 134.02 339.02 127.2 345.47 120.37 351.97 113.56 358.56 106.82 365.25 100.17 375.54 90.5 379.03 87.33" stroke-dasharray="10 5" transform="rotate(8.08, 400, 400)"></path><path d="M381.82 99.77Q390.72 102.73 399.82 105.84 409.12 109.13 418.61 112.62 428.27 116.34 438.11 120.32 448.1 124.56 458.22 129.09 468.47 133.91 478.82 139.02 489.25 144.42 499.74 150.09 510.27 156.03 520.81 162.21 531.33 168.6 541.81 175.18 552.23 181.9 562.56 188.74 572.77 195.65 582.83 202.58 592.74 209.5 602.45 216.35 611.95 223.1 621.21 229.69 630.23 236.09 638.97 242.26 647.44 248.16 655.61 253.76 663.47 259.04 671.02 263.97 679.93 275.4 677.02 291.7 671.62 301.16 665.57 310.62 659.08 320.08 652.38 329.54 645.71 339 639.29 348.45 633.34 357.91 628.07 367.37 623.66 376.83 620.27 386.29 618.02 395.75 616.97 405.21 617.17 414.67 618.61 424.13 621.24 433.59 624.97 443.05 629.67 452.51 635.17 461.97 641.3 471.43 647.82 480.89 654.53 490.35 661.19 499.81 667.56 509.27 673.42 518.73 678.58 528.19 682.86 537.65 686.1 547.11 688.19 556.57 684.4 573.52 670.47 586 660.96 590.41 651.2 594.24 641.23 597.51 631.05 600.22 620.71 602.42 610.23 604.13 599.63 605.4 588.94 606.3 578.19 606.89 567.41 607.23 556.62 607.42 545.86 607.51 535.14 607.61 524.5 607.79 513.95 608.14 503.52 608.73 493.23 609.64 483.09 610.96 473.13 612.73 463.36 615.02 453.79 617.87 444.42 621.33 435.28 625.42 426.36 630.15 417.66 635.53 409.19 641.55 400.94 648.19 392.92 655.41 377.62 667.15 362.96 671.1 349.16 671.47 335.77 671.83 322.9 671.33 310.22 669.82 297.69 666 285.14 660.51 272.39 652 259.43 641.65 252.8 635.44 246.06 628.7 239.21 621.46 232.25 613.79 225.16 605.73 217.95 597.37 210.6 588.78 203.13 580.03 195.53 571.21 187.81 562.38 179.96 553.64 172.01 545.06 163.95 536.71 155.79 528.66 155.88 519.73 155.66 510.8 155.15 501.86 154.35 492.93 153.29 484 152.02 475.06 150.58 466.13 149 457.2 147.36 448.26 145.71 439.33 144.1 430.39 142.59 421.46 141.23 412.53 140.07 403.59 139.15 394.66 138.51 385.73 138.15 376.79 138.1 367.86 138.36 358.93 138.92 349.99 139.75 341.06 140.84 332.12 142.14 323.19 143.6 314.26 145.19 305.32 146.83 296.39 148.49 287.45 150.08 278.52 151.58 269.59 152.91 260.65 158.8 246.15 172.16 238.5 189.12 234.49 205.83 230.4 222.01 225.74 237.83 220.49 252.96 213.96 267.65 206.52 281.63 197.52 295.19 187.58 308.14 176.25 320.77 164.24 326.94 157.91 333.04 151.45 339.1 144.9 345.13 138.3 351.15 131.69 357.18 125.11 363.25 118.59 369.36 112.18 378.68 102.83 381.82 99.77" stroke-dasharray="9 3" transform="rotate(12.12, 400, 400)"></path><path d="M385.83 112.2Q403.88 117.9 422.55 124.26 441.73 131.49 461.31 139.71 481.15 149.02 501.11 159.41 521 170.82 540.65 183.08 559.89 196 578.56 209.29 596.49 222.66 613.54 235.78 629.62 248.33 644.63 260.03 658.53 270.64 671.31 279.98 662.48 298.1 651.07 316.22 638.52 334.34 626.41 352.45 616.26 370.57 609.34 388.69 606.53 406.81 608.17 424.93 614.07 443.04 623.47 461.16 635.21 479.28 647.8 497.39 659.65 515.51 669.29 533.63 675.5 551.75 677.5 569.86 660.89 578.47 643.27 585.01 624.75 589.6 605.49 592.48 585.67 594.01 565.46 594.66 545.06 594.97 524.64 595.51 504.4 596.85 484.5 599.51 465.07 603.93 446.24 610.45 428.1 619.26 410.72 630.39 394.12 643.73 378.32 659 365.34 658.55 352.85 658.77 340.73 659.03 328.84 658.73 317.05 657.32 305.22 654.32 293.24 649.37 281.01 642.27 268.42 632.93 255.41 621.46 241.94 608.06 227.97 593.11 213.51 577.04 198.58 560.38 183.22 543.66 167.48 527.44 166.94 510.24 165.28 493.04 162.71 475.85 159.54 458.65 156.17 441.45 153.03 424.25 150.52 407.05 148.94 389.85 148.5 372.65 149.26 355.46 151.11 338.26 153.82 321.06 157.06 303.86 160.41 286.66 163.46 269.46 165.82 252.26 182.52 248.51 199.03 244.79 215.27 240.78 231.15 236.15 246.6 230.65 261.55 224.1 275.97 216.38 289.83 207.47 303.14 197.43 315.91 186.37 328.21 174.51 340.1 162.08 351.69 149.36 363.08 136.63 380.12 118.18 385.83 112.2" stroke-dasharray="7 5" transform="rotate(16.16, 400, 400)"></path><path d="M390.78 124.62Q408.63 129.96 426.9 135.92 445.5 142.68 464.29 150.36 483.14 159.05 501.92 168.76 520.48 179.45 538.66 190.99 556.33 203.22 573.35 215.9 589.61 228.79 605.02 241.58 619.49 254.01 632.99 265.79 645.5 276.68 657.04 286.49 647.78 303.78 636.6 321.07 624.78 338.36 613.67 355.66 604.55 372.95 598.46 390.24 596.1 407.53 597.73 424.82 603.19 442.12 611.83 459.41 622.66 476.7 634.46 493.99 645.85 511.28 655.54 528.57 662.42 545.86 665.7 563.15 650.64 570.01 634.61 575.06 617.7 578.48 600.03 580.54 581.73 581.61 562.94 582.13 543.82 582.57 524.54 583.42 505.24 585.17 486.08 588.23 467.2 592.98 448.73 599.66 430.75 608.41 413.37 619.24 396.64 632.05 380.59 646.58 368.95 646.03 357.62 646.09 346.48 646.25 335.41 645.98 324.29 644.79 313.01 642.25 301.48 638.04 289.62 631.94 277.36 623.85 264.66 613.77 251.49 601.88 237.84 588.4 223.73 573.7 209.19 558.19 194.26 542.33 179.01 526.57 178.06 510.05 176.07 493.52 173.28 476.99 169.98 460.46 166.58 443.93 163.45 427.4 160.95 410.87 159.38 394.34 158.91 377.81 159.59 361.28 161.35 344.75 163.98 328.22 167.19 311.69 170.6 295.17 173.83 278.64 176.51 262.11 192.63 258.7 208.63 255.12 224.41 251.07 239.91 246.3 255.03 240.62 269.73 233.89 283.94 226.06 297.63 217.11 310.79 207.14 323.42 196.27 335.54 184.71 347.2 172.66 358.46 160.38 369.41 148.13 385.46 130.38 390.78 124.62" stroke-dasharray="4 1" transform="rotate(20.200000000000003, 400, 400)"></path><path d="M396.35 137.05Q413.73 142.04 431.34 147.6 449.1 153.9 466.87 161.05 484.54 169.13 501.99 178.16 519.09 188.12 535.73 198.92 551.8 210.43 567.19 222.45 581.84 234.77 595.67 247.15 608.65 259.33 620.76 271.06 632.01 282.11 642.43 292.27 632.99 308.72 622.19 325.16 611.17 341.61 601.07 358.05 592.94 374.5 587.62 390.94 585.67 407.39 587.3 423.83 592.33 440.28 600.23 456.72 610.2 473.17 621.18 489.61 632.04 506.05 641.65 522.5 649 538.94 653.33 555.39 639.73 560.68 625.23 564.46 609.89 566.94 593.79 568.4 577.04 569.18 559.73 569.69 542.01 570.33 523.99 571.53 505.81 573.68 487.61 577.13 469.5 582.15 451.62 588.94 434.06 597.59 416.91 608.1 400.26 620.36 384.15 634.15 373.61 633.51 363.21 633.44 352.84 633.5 342.4 633.23 331.78 632.22 320.92 630.09 309.73 626.53 298.16 621.34 286.16 614.38 273.73 605.64 260.84 595.19 247.5 583.2 233.74 569.93 219.6 555.7 205.11 540.88 190.35 525.86 189 510.01 186.72 494.16 183.73 478.3 180.35 462.45 176.94 446.6 173.84 430.74 171.38 414.89 169.82 399.03 169.31 383.18 169.92 367.33 171.57 351.47 174.1 335.62 177.24 319.76 180.67 303.91 184.02 288.05 186.96 272.2 202.49 268.97 217.94 265.39 233.24 261.21 248.32 256.26 263.09 250.37 277.5 243.47 291.49 235.53 305.01 226.59 318.04 216.72 330.56 206.08 342.58 194.83 354.11 183.19 365.18 171.37 375.87 159.6 391.29 142.57 396.35 137.05" stroke-dasharray="4 9" transform="rotate(24.24, 400, 400)"></path><path d="M402.16 149.47Q418.8 154.13 435.52 159.3 452.21 165.15 468.78 171.77 485.12 179.25 501.13 187.61 516.72 196.85 531.79 206.89 546.26 217.65 560.08 228.96 573.19 240.65 585.55 252.52 597.15 264.34 608 275.89 618.12 286.95 627.55 297.34 618.15 312.92 607.88 328.5 597.72 344.08 588.61 359.66 581.43 375.24 576.83 390.82 575.26 406.4 576.86 421.98 581.48 437.57 588.69 453.15 597.81 468.73 607.97 484.31 618.24 499.89 627.63 515.47 635.27 531.05 640.45 546.63 628.2 550.59 615.14 553.34 601.3 555.1 586.74 556.14 571.52 556.79 555.73 557.39 539.46 558.31 522.81 559.87 505.89 562.41 488.81 566.2 471.68 571.44 454.61 578.29 437.7 586.81 421.04 596.97 404.71 608.67 388.78 621.73 379.09 621 369.38 620.81 359.58 620.77 349.58 620.49 339.33 619.63 328.76 617.84 317.82 614.86 306.48 610.48 294.72 604.56 282.53 597.05 269.91 587.98 256.89 577.45 243.49 565.63 229.76 552.77 215.74 539.16 201.49 525.11 199.76 509.94 197.21 494.77 194.07 479.6 190.64 464.43 187.25 449.27 184.2 434.1 181.8 418.93 180.25 403.76 179.72 388.59 180.24 373.42 181.78 358.26 184.18 343.09 187.22 327.92 190.61 312.75 194.04 297.58 197.18 282.41 212.09 279.21 226.96 275.51 241.73 271.14 256.34 265.96 270.72 259.86 284.81 252.81 298.54 244.8 311.87 235.89 324.77 226.17 337.2 215.78 349.14 204.89 360.61 193.67 371.6 182.33 382.16 171.06 397.25 154.76 402.16 149.47" stroke-dasharray="9 8" transform="rotate(28.28, 400, 400)"></path><path d="M407.83 161.9Q423.5 166.22 439.11 171.02 454.57 176.42 469.8 182.53 484.7 189.42 499.22 197.12 513.26 205.64 526.78 214.92 539.72 224.9 552.04 235.46 563.71 246.46 574.72 257.73 585.08 269.08 594.8 280.32 603.93 291.26 612.5 301.71 603.32 316.42 593.69 331.12 584.42 345.82 576.3 360.53 570.02 375.23 566.09 389.94 564.86 404.64 566.42 419.34 570.66 434.05 577.2 448.75 585.49 463.46 594.85 478.16 604.46 492.87 613.54 507.57 621.3 522.28 627.09 536.98 616.09 539.85 604.37 541.8 591.96 543.05 578.87 543.86 565.15 544.51 550.87 545.3 536.07 546.52 520.85 548.46 505.29 551.36 489.47 555.44 473.48 560.86 457.42 567.72 441.38 576.06 425.43 585.84 409.67 596.98 394.15 609.3 385.07 608.51 375.85 608.21 366.43 608.07 356.74 607.78 346.73 607.02 336.37 605.53 325.63 603.05 314.48 599.38 302.93 594.4 290.98 588.03 278.65 580.25 265.95 571.12 252.94 560.75 239.64 549.31 226.11 537.01 212.39 524.1 210.32 509.63 207.55 495.16 204.3 480.69 200.86 466.22 197.51 451.75 194.54 437.29 192.2 422.82 190.69 408.35 190.13 393.88 190.57 379.41 191.98 364.94 194.23 350.47 197.13 336.01 200.45 321.54 203.89 307.07 207.17 292.6 221.42 289.29 235.67 285.4 249.88 280.79 263.98 275.36 277.91 269.07 291.62 261.89 305.05 253.85 318.15 245.01 330.87 235.48 343.19 225.38 355.07 214.86 366.5 204.1 377.48 193.25 388.01 182.5 402.97 166.95 407.83 161.9" stroke-dasharray="4 5" transform="rotate(32.32, 400, 400)"></path><path d="M412.98 174.34Q427.49 178.33 441.84 182.76 455.94 187.73 469.73 193.35 483.16 199.66 496.17 206.71 508.7 214.51 520.73 223.03 532.21 232.22 543.14 242 553.49 252.25 563.29 262.84 572.53 273.63 581.26 284.43 589.51 295.1 597.34 305.46 588.56 319.28 579.66 333.1 571.31 346.92 564.14 360.73 558.7 374.55 555.39 388.37 554.46 402.19 555.99 416.01 559.85 429.83 565.76 443.65 573.27 457.47 581.81 471.3 590.74 485.12 599.4 498.94 605.28 520.68 592.98 529.98 581.89 530.92 570.19 531.64 557.92 532.4 545.09 533.43 531.77 534.99 518 537.29 503.85 540.52 489.38 544.85 474.66 550.39 459.76 557.21 444.77 565.33 429.75 574.71 414.78 585.27 399.92 596.86 391.23 596.02 382.32 595.62 373.14 595.39 363.64 595.07 353.8 594.41 343.59 593.15 333.01 591.1 322.05 588.06 310.71 583.92 299.01 578.57 286.99 571.99 274.65 564.19 262.05 555.22 249.22 545.21 236.2 534.29 223.05 522.66 220.68 508.9 217.73 495.15 214.42 481.4 211 467.65 207.73 453.9 204.86 440.14 202.6 426.39 201.13 412.64 200.54 398.89 200.9 385.14 202.16 371.38 204.25 357.63 206.99 343.88 210.18 330.13 213.58 316.38 216.94 302.63 230.49 299.11 244.08 294.96 257.68 290.09 271.21 284.43 284.64 277.96 297.91 270.7 310.97 262.67 323.78 253.96 336.28 244.66 348.44 234.89 360.22 224.78 371.61 214.49 382.58 204.15 393.13 193.93 408.12 179.14 412.98 174.34" stroke-dasharray="3 5" transform="rotate(36.36, 400, 400)"></path><path d="M417.25 186.76Q430.47 190.44 443.45 194.51 456.13 199.07 468.47 204.2 480.42 209.95 491.96 216.36 503.05 223.46 513.67 231.23 523.8 239.63 533.46 248.6 542.63 258.07 551.34 267.92 559.6 278.04 567.47 288.3 574.96 298.55 582.15 308.65 573.91 321.58 565.8 334.51 558.38 347.45 552.13 360.38 547.48 373.31 544.73 386.24 544.07 399.18 545.55 412.11 549.06 425.04 554.37 437.98 561.12 450.91 568.87 463.84 577.1 476.78 585.25 489.71 591.57 509.82 581.01 518.02 571.14 518.81 560.74 519.58 549.82 520.53 538.4 521.85 526.51 523.75 514.18 526.39 501.45 529.91 488.37 534.43 474.99 540.04 461.38 546.77 447.58 554.64 433.66 563.59 419.67 573.57 405.69 584.44 397.23 583.55 388.49 583.06 379.44 582.75 370.07 582.4 360.34 581.8 350.27 580.74 339.84 579.04 329.07 576.55 317.98 573.14 306.57 568.71 294.88 563.22 282.95 556.65 270.8 549.02 258.47 540.4 246.01 530.89 233.45 520.61 230.83 507.59 227.76 494.58 224.43 481.56 221.08 468.54 217.92 455.53 215.16 442.51 213 429.49 211.56 416.48 210.96 403.46 211.23 390.45 212.35 377.43 214.25 364.41 216.8 351.4 219.83 338.38 223.13 325.37 226.5 312.35 239.32 308.56 252.21 304.13 265.14 298.99 278.05 293.12 290.92 286.52 303.68 279.22 316.3 271.26 328.74 262.72 340.94 253.69 352.88 244.29 364.51 234.62 375.81 224.82 386.74 215.01 397.3 205.32 412.36 191.32 417.25 186.76" stroke-dasharray="10 9" transform="rotate(40.400000000000006, 400, 400)"></path><path d="M420.38 199.19Q432.22 202.56 443.78 206.29 455.03 210.44 465.93 215.1 476.46 220.31 486.61 226.11 496.34 232.52 505.67 239.54 514.59 247.15 523.1 255.31 531.23 263.95 538.99 273.02 546.41 282.4 553.52 292 560.37 301.7 567.01 311.4 559.42 323.44 552.15 335.49 545.64 347.54 540.27 359.58 536.35 371.63 534.12 383.68 533.69 395.72 535.11 407.77 538.29 419.82 543.03 431.87 549.07 443.91 556.04 455.96 563.54 468.01 571.12 480.06 568.7 502.74 550.57 507.74 540.91 508.94 530.81 510.58 520.28 512.81 509.33 515.75 498.01 519.51 486.33 524.17 474.33 529.79 462.06 536.39 449.55 543.97 436.85 552.48 424.01 561.86 411.08 572.01 402.72 571.09 394.07 570.53 385.11 570.14 375.82 569.76 366.21 569.19 356.27 568.29 346.03 566.89 335.49 564.86 324.67 562.08 313.6 558.46 302.31 553.94 290.82 548.5 279.17 542.12 267.39 534.84 255.51 526.71 243.58 517.81 240.79 505.55 237.65 493.29 234.35 481.03 231.09 468.77 228.06 456.51 225.44 444.25 223.38 431.98 222 419.72 221.38 407.46 221.57 395.2 222.54 382.94 224.24 370.68 226.58 358.42 229.4 346.16 232.56 333.9 235.86 321.64 247.92 317.55 260.07 312.83 272.28 307.45 284.52 301.42 296.76 294.74 308.95 287.46 321.05 279.62 333.03 271.31 344.85 262.6 356.48 253.6 367.87 244.4 379 235.11 389.84 225.85 400.36 216.71 415.46 203.49 420.38 199.19" stroke-dasharray="1 4" transform="rotate(44.44, 400, 400)"></path><path d="M422.14 211.61Q432.59 214.69 442.75 218.08 452.61 221.85 462.14 226.05 471.33 230.74 480.19 235.94 488.7 241.69 496.86 247.98 504.7 254.81 512.21 262.15 519.42 269.96 526.36 278.2 533.05 286.78 539.52 295.64 545.82 304.68 551.98 313.82 545.13 324.98 538.73 336.15 533.11 347.32 528.56 358.48 525.32 369.65 523.54 380.82 523.32 391.99 524.68 403.15 527.53 414.32 531.75 425.49 537.1 436.65 543.32 447.82 550.08 458.99 557.05 470.16 555.68 491.21 539.75 496.21 531.24 497.7 522.36 499.66 513.1 502.19 503.47 505.39 493.49 509.33 483.18 514.08 472.55 519.65 461.63 526.07 450.46 533.32 439.06 541.37 427.47 550.15 415.72 559.59 407.42 558.65 398.82 558.02 389.92 557.57 380.73 557.14 371.26 556.61 361.5 555.82 351.49 554.66 341.24 553.01 330.76 550.77 320.09 547.85 309.24 544.19 298.25 539.76 287.15 534.52 275.96 528.49 264.72 521.68 253.45 514.15 250.54 502.67 247.4 491.18 244.18 479.69 241.05 468.21 238.18 456.72 235.7 445.23 233.76 433.75 232.44 422.26 231.81 410.78 231.91 399.29 232.73 387.81 234.23 376.32 236.33 364.84 238.93 353.35 241.89 341.86 245.06 330.38 256.32 325.98 267.69 321.01 279.14 315.44 290.65 309.3 302.19 302.6 313.73 295.41 325.24 287.76 336.68 279.72 348.03 271.38 359.24 262.82 370.29 254.11 381.15 245.36 391.79 236.65 402.18 228.07 417.22 215.66 422.14 211.61" stroke-dasharray="6 6" transform="rotate(48.48, 400, 400)"></path><path d="M422.42 224.04Q431.52 226.83 440.34 229.9 448.89 233.29 457.15 237.05 465.13 241.23 472.82 245.87 480.24 250.97 487.38 256.56 494.27 262.62 500.92 269.15 507.35 276.13 513.59 283.51 519.65 291.26 525.58 299.31 531.4 307.59 537.15 316.05 531.08 326.35 525.55 336.64 520.78 346.94 517 357.24 514.37 367.53 513 377.83 512.96 388.12 514.24 398.42 516.8 408.72 520.51 419.01 525.22 429.31 530.71 439.61 536.75 449.9 543.06 460.2 542.38 479.86 528.38 485.06 512.97 489.37 496.62 495.31 487.91 499.38 478.89 504.14 469.58 509.62 460 515.81 450.16 522.7 440.09 530.26 429.8 538.43 419.32 547.16 402.39 545.62 384.68 544.57 375.4 544.05 365.89 543.35 356.18 542.39 346.28 541.05 336.22 539.25 326.01 536.93 315.68 534.01 305.25 530.46 294.75 526.24 284.2 521.35 273.64 515.78 263.07 509.54 260.11 498.85 257.02 488.16 253.92 477.47 250.96 466.77 248.26 456.08 245.95 445.39 244.13 434.7 242.87 424 242.24 413.31 242.26 402.62 242.94 391.93 244.23 381.23 246.09 370.54 248.42 359.85 251.14 349.16 254.12 338.47 264.55 333.8 275.11 328.61 285.76 322.92 296.49 316.74 307.28 310.11 318.1 303.06 328.93 295.66 339.74 287.96 350.51 280.03 361.21 271.94 371.81 263.76 382.28 255.57 392.6 247.43 402.75 239.42 417.56 227.82 422.42 224.04" stroke-dasharray="11 8" transform="rotate(52.52, 400, 400)"></path><path d="M421.21 236.46Q436.5 241.87 451.1 248.11 464.56 256.1 477.4 265.3 489.31 276.57 500.78 289.04 506.31 295.92 511.77 303.11 517.24 319.13 512.63 337.12 508.67 346.56 505.59 356 503.5 365.44 502.49 374.87 502.59 384.31 503.8 393.75 506.08 403.19 509.32 412.63 513.43 422.06 518.23 431.5 523.55 440.94 529.19 450.37 528.88 468.83 516.54 474.34 503.08 479.17 488.86 485.5 481.31 489.63 473.49 494.35 465.43 499.67 457.12 505.59 448.57 512.1 439.8 519.15 430.81 526.71 421.63 534.73 404.92 533.16 387.59 532.03 378.59 531.51 369.41 530.89 360.09 530.07 350.62 528.98 341.05 527.55 331.38 525.72 321.63 523.43 311.82 520.64 301.98 517.31 292.13 513.42 282.27 508.97 272.45 503.95 269.51 494.06 266.52 484.18 263.59 474.3 260.82 464.42 258.32 454.53 256.18 444.65 254.49 434.77 253.31 424.89 252.68 415 252.63 405.12 253.16 395.24 254.24 385.36 255.84 375.47 257.9 365.59 260.34 355.71 263.07 345.82 272.66 340.95 282.37 335.63 292.18 329.89 302.09 323.76 312.07 317.26 322.11 310.45 332.18 303.36 342.28 296.05 352.38 288.57 362.45 280.99 372.49 273.36 382.45 265.73 392.33 258.18 402.09 250.75 416.47 239.98 421.21 236.46" stroke-dasharray="2 11" transform="rotate(56.56, 400, 400)"></path><path d="M418.57 248.9Q431.73 253.6 444.16 259.23 455.92 266.05 467.08 274.21 477.75 283.81 488.07 294.83 498.18 307.15 508.27 320.56 499.97 337.75 494.32 354.93 492.02 372.11 493.37 389.3 498.18 406.48 505.87 423.67 515.45 440.85 525.73 458.03 515.33 460.51 504.36 464.09 492.71 469.14 480.29 475.95 467.07 484.7 453.01 495.42 438.14 508.03 422.49 522.3 406.28 520.64 389.44 519.53 372.07 518.43 354.28 516.83 336.22 514.26 318 510.33 299.75 504.75 281.6 497.33 275.93 479.22 270.64 461.1 266.4 442.99 263.75 424.87 263.01 406.76 264.27 388.64 267.39 370.53 271.96 352.41 289.53 342.05 307.51 330.36 325.84 317.57 344.41 303.99 363.1 289.96 381.78 275.87 400.32 262.07 418.57 248.9 418.57 248.9 418.57 248.9" stroke-dasharray="9 7" transform="rotate(60.599999999999994, 400, 400)"></path><path d="M414.7 261.33Q425.9 265.48 436.57 270.4 446.79 276.3 456.63 283.3 466.19 291.5 475.57 300.92 484.91 311.5 494.33 323.13 487.6 338.65 483.2 354.18 481.59 369.71 482.93 385.23 487.09 400.75 493.64 416.28 501.88 431.8 510.97 447.33 501.65 450.3 491.94 454.37 481.77 459.77 471.05 466.68 459.73 475.19 447.76 485.3 435.13 496.92 421.85 509.87 406.27 508.24 390.25 507.08 373.9 506.01 357.31 504.65 340.59 502.62 323.82 499.62 307.12 495.39 290.56 489.75 285.25 473.31 280.43 456.86 276.61 440.41 274.18 423.97 273.4 407.52 274.34 391.07 276.91 374.62 280.84 358.18 296.64 347.87 312.84 336.54 329.4 324.43 346.24 311.77 363.29 298.86 380.45 285.96 397.62 273.37 414.7 261.33 414.7 261.33 414.7 261.33" stroke-dasharray="7 8" transform="rotate(64.64, 400, 400)"></path><path d="M409.84 273.75Q419.37 277.38 428.57 281.64 437.5 286.67 446.23 292.59 454.83 299.48 463.4 307.38 472.02 316.27 480.79 326.1 475.51 340 472.21 353.89 471.18 367.79 472.49 381.69 476.04 395.58 481.53 409.48 488.5 423.38 496.35 437.27 487.99 440.72 479.42 445.19 470.54 450.8 461.29 457.66 451.63 465.81 441.5 475.22 430.88 485.81 419.75 497.45 405.06 495.86 390.12 494.68 375.01 493.63 359.79 492.44 344.55 490.83 329.35 488.56 314.26 485.42 299.35 481.26 294.5 466.49 290.2 451.73 286.81 436.96 284.62 422.2 283.81 407.43 284.45 392.67 286.48 377.9 289.74 363.14 303.77 353.1 318.16 342.35 332.88 331.06 347.91 319.44 363.18 307.69 378.64 296.02 394.22 284.65 409.84 273.75 409.84 273.75 409.84 273.75" stroke-dasharray="1 10" transform="rotate(68.68, 400, 400)"></path><path d="M404.33 286.18Q412.48 289.31 420.45 292.93 428.29 297.15 436.06 302.07 443.83 307.75 451.64 314.23 459.56 321.52 467.66 329.62 463.7 341.91 461.36 354.21 460.8 366.51 462.06 378.8 465.05 391.1 469.57 403.4 474.89 423.77 466.89 436.56 459.15 442.23 451.19 448.89 442.97 456.55 434.43 465.17 425.56 474.7 416.32 485.02 402.81 483.51 389.19 482.34 375.5 481.31 361.82 480.24 348.18 478.93 334.64 477.22 321.24 474.93 308.02 471.94 303.72 458.86 299.96 445.78 297.01 432.71 295.06 419.63 294.24 406.56 294.6 393.48 296.13 380.41 298.72 367.33 310.97 357.81 323.54 347.81 336.41 337.49 349.57 326.99 362.97 316.46 376.6 306.05 397.36 291.05 404.33 286.18" stroke-dasharray="7 10" transform="rotate(72.72, 400, 400)"></path><path d="M398.52 298.6Q412.45 304.51 426.31 311.77 433.29 316.34 440.37 321.52 447.59 327.33 454.98 333.78 452.17 344.51 450.63 355.23 450.45 365.96 451.62 376.68 454.09 387.41 457.74 398.13 461.75 416.27 454.49 428.5 447.77 434.05 440.93 440.35 433.95 447.4 426.79 455.16 419.41 463.58 411.81 472.6 399.72 471.18 387.62 470.04 375.54 469.04 363.51 468.06 351.58 466.98 339.77 465.67 328.11 464.01 316.61 461.92 312.9 450.53 309.71 439.14 307.2 427.75 305.49 416.37 304.69 404.98 304.82 393.59 305.88 382.21 307.81 370.82 318.31 362.03 329.07 352.97 340.09 343.74 351.35 334.44 362.85 325.18 374.56 316.06 392.49 302.89 398.52 298.6" stroke-dasharray="5 2" transform="rotate(76.76, 400, 400)"></path><path d="M392.82 311.03Q404.91 315.87 417.11 321.68 429.73 329.5 442.75 338.7 440.92 347.87 440.03 357.05 440.12 366.22 441.18 375.4 443.18 384.57 446.04 393.75 448.87 409.6 442.31 420.98 430.66 432.29 418.81 445.17 412.73 452.46 406.51 460.17 396.05 458.88 385.63 457.8 375.28 456.84 365.02 455.95 354.86 455.02 344.82 453.99 328.51 447.21 319.47 431.93 317.39 422.22 315.93 412.52 315.16 402.81 315.09 393.11 315.74 383.4 317.07 373.69 325.86 365.85 334.85 357.88 344.04 349.85 353.42 341.82 363 333.86 372.77 326.04 387.77 314.72 392.82 311.03" stroke-dasharray="3 4" transform="rotate(80.80000000000001, 400, 400)"></path><path d="M387.59 323.47Q397.97 327.2 408.6 331.8 419.56 337.49 430.99 344.43 429.54 359.71 430.75 374.99 434.47 390.28 440.34 405.56 430.46 414 420.65 423.9 410.79 435.2 400.77 447.73 383.47 445.61 366.49 443.91 349.89 442.28 333.73 440.36 329.23 424.29 326.37 408.21 325.44 392.14 326.55 376.06 340.94 362.6 355.92 349.14 371.47 336 387.59 323.47 387.59 323.47 387.59 323.47" stroke-dasharray="7 7" transform="rotate(84.84, 400, 400)"></path><path d="M383.19 335.89Q391.91 338.75 400.86 342.14 410.1 346.2 419.67 351.01 419.16 363.25 420.31 375.49 423.04 387.72 427.17 399.95 419.02 407.51 410.98 415.96 402.98 425.26 394.98 435.31 381.39 433.48 368.07 431.97 355.05 430.59 342.36 429.16 339.02 416.39 336.81 403.62 335.88 390.84 336.29 378.07 347.44 367.18 358.97 356.42 377.04 340.92 383.19 335.89" stroke-dasharray="7 0" transform="rotate(88.88, 400, 400)"></path><path d="M379.92 348.32Q394.08 352.87 408.8 358.46 408.88 367.65 409.87 376.85 409.9 393.76 401.82 408.18 387.64 418.37 369.92 420.15 354.62 413.7 347.24 398.88 346.4 389.37 346.33 379.86 354.4 371.71 362.68 363.69 375.55 352.09 379.92 348.32" stroke-dasharray="2 5" transform="rotate(92.92, 400, 400)"></path><path d="M377.99 360.74Q387.98 363.46 398.34 366.75 399.43 379.05 402.04 391.36 393.3 400.54 384.77 410.46 372.2 408.48 360.02 406.79 357.68 394.19 356.69 381.6 372.57 365.85 377.99 360.74" stroke-dasharray="9 0" transform="rotate(96.96, 400, 400)"></path></g></svg>