<svg width="200" height="200" viewBox="0 0 200 200" stroke="#5a0c25" fill="none" stroke-width="2.5" stroke-linecap="round" stroke-linejoin="round"  xmlns="http://www.w3.org/2000/svg">
    <path fill="orange" stroke="none" transform="translate(-10,-10)" d="m99.16 107.746-22.114 48.983c-27.41-14.479-38.401-35.614-38.545-55.395-.146-20.203 11.007-39.192 28.021-48.66 10.208-5.68 24.347-12.286 40.714-7.559 16.099 4.65 34.841 20.416 54.168 60.233l-60.915 1.516-.942.023-.388.859Z"/><path d="m99.16 107.746-22.114 48.983c-27.41-14.479-38.401-35.614-38.545-55.395-.146-20.203 11.007-39.192 28.021-48.66 10.208-5.68 24.347-12.286 40.714-7.559 16.099 4.65 34.841 20.416 54.168 60.233l-60.915 1.516-.942.023-.388.859Z"/>
</svg>