<svg width="200" height="200" viewBox="0 0 200 200" stroke="#5a0c25" fill="none" stroke-width="2.5" stroke-linecap="round" stroke-linejoin="round"  xmlns="http://www.w3.org/2000/svg">
    <path fill="#e84f7f" stroke="none" transform="translate(-10,-10)" d="m100 44.854 12.044 37.069.337 1.036h40.066l-31.532 22.91-.882.64.337 1.037 12.044 37.068-31.532-22.91-.882-.64-.882.64-31.532 22.91 12.044-37.068.337-1.037-.882-.64-31.532-22.91H87.62l.337-1.037L100 44.855Z"/>
    <path d="m100 44.854 12.044 37.069.337 1.036h40.066l-31.532 22.91-.882.64.337 1.037 12.044 37.068-31.532-22.91-.882-.64-.882.64-31.532 22.91 12.044-37.068.337-1.037-.882-.64-31.532-22.91H87.62l.337-1.037L100 44.855Z"/>
</svg>