<svg width="200" height="200" viewBox="0 0 200 200" stroke="#5a0c25" fill="none" stroke-width="2.5" stroke-linecap="round" stroke-linejoin="round"  xmlns="http://www.w3.org/2000/svg">
    <path fill="#e84f7f" stroke="none" transform="translate(-10,-10)" d="M81.627 78.457c6.439-4.545 11.992-10.068 18.015-17.845 5.734 8.766 11.251 14.663 17.813 19.175 6.659 4.58 14.314 7.677 24.154 10.954l-15.912 48.974H73.8L57.86 90.652c9.713-3.952 17.175-7.54 23.768-12.195Z"/><path d="M81.627 78.457c6.439-4.545 11.992-10.068 18.015-17.845 5.734 8.766 11.251 14.663 17.813 19.175 6.659 4.58 14.314 7.677 24.154 10.954l-15.912 48.974H73.8L57.86 90.652c9.713-3.952 17.175-7.54 23.768-12.195Z"/>
</svg>